<svg width="35" height="34" viewBox="0 0 35 34" fill="none" xmlns="http://www.w3.org/2000/svg">
<path d="M19.0101 22.6969H16.3076C14.3957 22.6969 12.8289 21.1664 12.8289 19.2807C12.8289 18.7204 13.3176 18.2558 13.907 18.2558C14.4964 18.2558 14.9851 18.7204 14.9851 19.2807C14.9851 20.0322 15.5745 20.6472 16.3076 20.6472H19.0101C19.5707 20.6472 20.0164 20.1689 20.0164 19.5813C20.0164 18.8434 19.8007 18.7341 19.312 18.5701L14.9851 17.1353C14.0651 16.8347 12.8289 16.1924 12.8289 14.1837C12.8289 12.4756 14.252 11.0681 15.9914 11.0681H18.6939C20.6057 11.0681 22.1726 12.5986 22.1726 14.4843C22.1726 15.0446 21.6839 15.5092 21.0945 15.5092C20.5051 15.5092 20.0164 15.0446 20.0164 14.4843C20.0164 13.7328 19.427 13.1178 18.6939 13.1178H15.9914C15.4307 13.1178 14.9851 13.5961 14.9851 14.1837C14.9851 14.9216 15.2007 15.0309 15.6895 15.1949L20.0164 16.6297C20.9364 16.9303 22.1726 17.5726 22.1726 19.5813C22.1726 21.3031 20.7495 22.6969 19.0101 22.6969Z" fill="#00AC4F"/>
<path d="M17.5007 24.0631C16.9114 24.0631 16.4226 23.5985 16.4226 23.0382V10.7398C16.4226 10.1796 16.9114 9.71497 17.5007 9.71497C18.0901 9.71497 18.5789 10.1796 18.5789 10.7398V23.0382C18.5789 23.5985 18.0901 24.0631 17.5007 24.0631Z" fill="#00AC4F"/>
<path d="M17.5007 31.5788C8.97636 31.5788 2.04761 24.9923 2.04761 16.889C2.04761 8.78576 8.97636 2.19928 17.5007 2.19928C18.0901 2.19928 18.5789 2.66389 18.5789 3.22415C18.5789 3.78441 18.0901 4.24901 17.5007 4.24901C10.1695 4.24901 4.20386 9.91994 4.20386 16.889C4.20386 23.8581 10.1695 29.5291 17.5007 29.5291C24.832 29.5291 30.7976 23.8581 30.7976 16.889C30.7976 16.3288 31.2864 15.8642 31.8757 15.8642C32.4651 15.8642 32.9539 16.3288 32.9539 16.889C32.9539 24.9923 26.0251 31.5788 17.5007 31.5788Z" fill="#00AC4F"/>
<path d="M30.4382 11.0814H24.6882C24.0989 11.0814 23.6101 10.6168 23.6101 10.0566V4.5906C23.6101 4.03034 24.0989 3.56573 24.6882 3.56573C25.2776 3.56573 25.7664 4.03034 25.7664 4.5906V9.03169H30.4382C31.0276 9.03169 31.5164 9.4963 31.5164 10.0566C31.5164 10.6168 31.0276 11.0814 30.4382 11.0814Z" fill="#00AC4F"/>
<path d="M24.6873 11.082C24.4142 11.082 24.1411 10.9864 23.9254 10.7814C23.5086 10.3851 23.5086 9.72918 23.9254 9.3329L31.1129 2.50046C31.5298 2.10418 32.2198 2.10418 32.6367 2.50046C33.0536 2.89674 33.0536 3.55265 32.6367 3.94894L25.4492 10.7814C25.2336 10.9864 24.9604 11.082 24.6873 11.082Z" fill="#00AC4F"/>
</svg>
