<svg width="71" height="72" viewBox="0 0 71 72" fill="none" xmlns="http://www.w3.org/2000/svg">
<ellipse cx="35.5" cy="35.7336" rx="35.5" ry="35.7336" fill="url(#paint0_linear_133_832)"/>
<path d="M26.7883 53.6594C22.8454 53.6594 19.615 50.7745 19.615 47.2226V43.8207C19.615 43.137 20.1783 42.5701 20.8575 42.5701C21.5367 42.5701 22.1 43.137 22.1 43.8207C22.1 45.9052 24.1045 47.4727 26.7883 47.4727C29.4721 47.4727 31.4767 45.9052 31.4767 43.8207C31.4767 43.137 32.0399 42.5701 32.7192 42.5701C33.3984 42.5701 33.9617 43.137 33.9617 43.8207V47.2226C33.9617 50.7745 30.7477 53.6594 26.7883 53.6594ZM22.5306 48.8568C23.2596 50.2242 24.8997 51.158 26.7883 51.158C28.6769 51.158 30.317 50.2075 31.0459 48.8568C29.8697 49.5739 28.4118 49.9907 26.7883 49.9907C25.1648 49.9907 23.7069 49.5739 22.5306 48.8568Z" fill="#0F5FC2"/>
<path d="M26.7883 45.4046C24.0714 45.4046 21.6361 44.1539 20.4267 42.1695C19.8966 41.3024 19.615 40.2852 19.615 39.2513C19.615 37.5004 20.377 35.8661 21.7686 34.6488C24.4524 32.2809 29.0745 32.281 31.7749 34.6323C33.1665 35.8663 33.9451 37.5004 33.9451 39.2513C33.9451 40.2852 33.6635 41.3024 33.1333 42.1695C31.9405 44.1539 29.5052 45.4046 26.7883 45.4046ZM26.7883 35.316C25.4961 35.316 24.3033 35.7494 23.4087 36.5332C22.5638 37.2669 22.1 38.2341 22.1 39.2513C22.1 39.8349 22.249 40.3687 22.5472 40.869C23.3093 42.1364 24.9328 42.9201 26.7883 42.9201C28.6438 42.9201 30.2673 42.1364 31.0128 40.8857C31.311 40.4021 31.4601 39.8518 31.4601 39.2681C31.4601 38.2509 30.9963 37.2836 30.1514 36.5332C29.2733 35.7494 28.0805 35.316 26.7883 35.316Z" fill="#0F5FC2"/>
<path d="M26.7883 49.9914C22.6963 49.9914 19.615 47.3399 19.615 43.8381V39.2522C19.615 35.7003 22.8289 32.8154 26.7883 32.8154C28.6603 32.8154 30.4496 33.4658 31.7914 34.6331C33.183 35.8671 33.9617 37.5013 33.9617 39.2522V43.8381C33.9617 47.3399 30.8803 49.9914 26.7883 49.9914ZM26.7883 35.3168C24.2039 35.3168 22.1 37.0844 22.1 39.2522V43.8381C22.1 45.9225 24.1045 47.49 26.7883 47.49C29.4721 47.49 31.4767 45.9225 31.4767 43.8381V39.2522C31.4767 38.235 31.0129 37.2678 30.168 36.5174C29.2734 35.7504 28.0805 35.3168 26.7883 35.3168Z" fill="#0F5FC2"/>
<path d="M46.4531 40.4033C43.9515 40.4033 41.831 38.5356 41.6322 36.1343C41.4996 34.7503 41.9966 33.3995 42.9906 32.4157C43.819 31.5485 44.9952 31.0649 46.2377 31.0649H49.7001C51.3402 31.115 52.5993 32.4157 52.5993 34.0165V37.4517C52.5993 39.0526 51.3402 40.3533 49.7498 40.4033H46.4531ZM49.6504 33.5663H46.2543C45.6744 33.5663 45.1443 33.7831 44.7633 34.1833C44.2828 34.6502 44.0509 35.2839 44.1172 35.9176C44.2 37.0182 45.2603 37.902 46.4531 37.902H49.7001C49.9155 37.902 50.1143 37.7019 50.1143 37.4517V34.0165C50.1143 33.7664 49.9155 33.583 49.6504 33.5663Z" fill="#0F5FC2"/>
<path d="M41.4174 51.1586H37.2758C36.5965 51.1586 36.0333 50.5916 36.0333 49.9079C36.0333 49.2242 36.5965 48.6573 37.2758 48.6573H41.4174C45.6916 48.6573 48.4583 45.8724 48.4583 41.5701V40.4028H46.4537C43.9521 40.4028 41.8316 38.5351 41.6328 36.1338C41.5003 34.7497 41.9974 33.399 42.9914 32.4151C43.8198 31.548 44.9958 31.0644 46.2383 31.0644H48.4417V29.8971C48.4417 25.995 46.1722 23.3102 42.4944 22.8766C42.0968 22.8099 41.7488 22.8099 41.4009 22.8099H26.4909C26.0933 22.8099 25.7123 22.8433 25.3312 22.8933C21.6866 23.3602 19.4501 26.0284 19.4501 29.8971V33.2322C19.4501 33.916 18.8868 34.4829 18.2076 34.4829C17.5284 34.4829 16.9651 33.916 16.9651 33.2322V29.8971C16.9651 24.761 20.1128 21.0423 25 20.4253C25.4473 20.3586 25.9608 20.3086 26.4909 20.3086H41.4009C41.7985 20.3086 42.312 20.3253 42.8422 20.4086C47.7293 20.9756 50.9267 24.711 50.9267 29.8971V32.3151C50.9267 32.9988 50.3634 33.5658 49.6842 33.5658H46.2383C45.6585 33.5658 45.1285 33.7825 44.7475 34.1828C44.2671 34.6497 44.035 35.2834 44.1012 35.917C44.1841 37.0176 45.2445 37.9014 46.4373 37.9014H49.7008C50.38 37.9014 50.9433 38.4684 50.9433 39.1521V41.5701C50.9433 47.3065 47.1164 51.1586 41.4174 51.1586Z" fill="#0F5FC2"/>
<defs>
<linearGradient id="paint0_linear_133_832" x1="63.0125" y1="1.82239e-06" x2="35.1847" y2="71.3442" gradientUnits="userSpaceOnUse">
<stop stop-color="#CAF1FF"/>
<stop offset="1" stop-color="#CDF4FF"/>
</linearGradient>
</defs>
</svg>
